HIERARCHY
ROOT Hips
{
	OFFSET -2.367664 84.929161 5.921969
	CHANNELS 6 Xposition Yposition Zposition Zrotation Yrotation Xrotation 
	JOINT Spine
	{
		OFFSET 0.000000 8.814246 -2.080107
		CHANNELS 3 Zrotation Yrotation Xrotation
		JOINT Spine1
		{
			OFFSET -0.000000 8.844141 0.000000
			CHANNELS 3 Zrotation Yrotation Xrotation
			JOINT Spine2
			{
				OFFSET 0.000000 11.682268 0.000000
				CHANNELS 3 Zrotation Yrotation Xrotation
				JOINT Spine3
				{
					OFFSET -0.000000 11.746700 0.000000
					CHANNELS 3 Zrotation Yrotation Xrotation
					JOINT Neck
					{
						OFFSET -0.000000 17.658264 0.000000
						CHANNELS 3 Zrotation Yrotation Xrotation
						JOINT Neck1
						{
							OFFSET 0.000000 5.101515 0.000000
							CHANNELS 3 Zrotation Yrotation Xrotation
							JOINT Head
							{
								OFFSET 0.000000 5.101515 -0.000000
								CHANNELS 3 Zrotation Yrotation Xrotation
								JOINT HeadEnd
								{
									OFFSET -0.000000 11.655085 0.000000
									CHANNELS 3 Zrotation Yrotation Xrotation
									End Site
									{
										OFFSET 0.000000 0.000000 0.000000
									}
								}
							}
						}
					}
					JOINT RightShoulder
					{
						OFFSET -2.625389 11.175210 0.000000
						CHANNELS 3 Zrotation Yrotation Xrotation
						JOINT RightArm
						{
							OFFSET 0.000000 10.434715 0.000000
							CHANNELS 3 Zrotation Yrotation Xrotation
							JOINT RightForeArm
							{
								OFFSET 0.000000 29.628420 0.000000
								CHANNELS 3 Zrotation Yrotation Xrotation
								JOINT RightHand
								{
									OFFSET -0.000000 22.857611 0.000000
									CHANNELS 3 Zrotation Yrotation Xrotation
									JOINT RightHandThumb1
									{
										OFFSET -2.867323 3.959563 2.944291
										CHANNELS 3 Zrotation Yrotation Xrotation
										JOINT RightHandThumb2
										{
											OFFSET -0.000000 3.350399 -0.000000
											CHANNELS 3 Zrotation Yrotation Xrotation
											JOINT RightHandThumb3
											{
												OFFSET 0.000000 3.756509 0.000000
												CHANNELS 3 Zrotation Yrotation Xrotation
												JOINT RightHandThumb4
												{
													OFFSET 0.000000 3.147345 0.000000
													CHANNELS 3 Zrotation Yrotation Xrotation
													End Site
													{
														OFFSET 0.000000 0.000000 0.000000
													}
												}
											}
										}
									}
									JOINT RightHandIndex1
									{
										OFFSET -0.086752 10.030893 2.345280
										CHANNELS 3 Zrotation Yrotation Xrotation
										JOINT RightHandIndex2
										{
											OFFSET 0.000000 4.061090 0.000000
											CHANNELS 3 Zrotation Yrotation Xrotation
											JOINT RightHandIndex3
											{
												OFFSET 0.000000 3.248873 -0.000000
												CHANNELS 3 Zrotation Yrotation Xrotation
												JOINT RightHandIndex4
												{
													OFFSET 0.000000 2.639709 0.000000
													CHANNELS 3 Zrotation Yrotation Xrotation
													End Site
													{
														OFFSET 0.000000 0.000000 0.000000
													}
												}
											}
										}
									}
									JOINT RightHandMiddle1
									{
										OFFSET 0.104102 9.502952 0.006768
										CHANNELS 3 Zrotation Yrotation Xrotation
										JOINT RightHandMiddle2
										{
											OFFSET -0.000000 4.568727 -0.000000
											CHANNELS 3 Zrotation Yrotation Xrotation
											JOINT RightHandMiddle3
											{
												OFFSET -0.000000 3.654981 -0.000000
												CHANNELS 3 Zrotation Yrotation Xrotation
												JOINT RightHandMiddle4
												{
													OFFSET 0.000000 2.741236 0.000000
													CHANNELS 3 Zrotation Yrotation Xrotation
													End Site
													{
														OFFSET 0.000000 0.000000 0.000000
													}
												}
											}
										}
									}
									JOINT RightHandRing1
									{
										OFFSET 0.086752 8.921708 -2.267442
										CHANNELS 3 Zrotation Yrotation Xrotation
										JOINT RightHandRing2
										{
											OFFSET 0.000000 4.061090 0.000000
											CHANNELS 3 Zrotation Yrotation Xrotation
											JOINT RightHandRing3
											{
												OFFSET 0.000000 3.654981 0.000000
												CHANNELS 3 Zrotation Yrotation Xrotation
												JOINT RightHandRing4
												{
													OFFSET 0.000000 2.741236 0.000000
													CHANNELS 3 Zrotation Yrotation Xrotation
													End Site
													{
														OFFSET 0.000000 0.000000 0.000000
													}
												}
											}
										}
									}
									JOINT RightHandPinky1
									{
										OFFSET -0.173504 7.976997 -4.467199
										CHANNELS 3 Zrotation Yrotation Xrotation
										JOINT RightHandPinky2
										{
											OFFSET 0.000000 3.350399 0.000000
											CHANNELS 3 Zrotation Yrotation Xrotation
											JOINT RightHandPinky3
											{
												OFFSET 0.000000 2.842763 0.000000
												CHANNELS 3 Zrotation Yrotation Xrotation
												JOINT RightHandPinky4
												{
													OFFSET 0.000000 2.639709 0.000000
													CHANNELS 3 Zrotation Yrotation Xrotation
													End Site
													{
														OFFSET 0.000000 0.000000 0.000000
													}
												}
											}
										}
									}
									JOINT RightForeArmEnd
									{
										OFFSET 0.000000 0.000000 0.000000
										CHANNELS 3 Zrotation Yrotation Xrotation
										End Site
										{
											OFFSET 0.000000 0.000000 0.000000
										}
									}
								}
								JOINT RightArmEnd
								{
									OFFSET 0.000000 0.000000 0.000000
									CHANNELS 3 Zrotation Yrotation Xrotation
									End Site
									{
										OFFSET 0.000000 0.000000 0.000000
									}
								}
							}
						}
					}
					JOINT LeftShoulder
					{
						OFFSET 2.625389 11.175210 -0.000000
						CHANNELS 3 Zrotation Yrotation Xrotation
						JOINT LeftArm
						{
							OFFSET -0.000000 10.813635 0.000000
							CHANNELS 3 Zrotation Yrotation Xrotation
							JOINT LeftForeArm
							{
								OFFSET -0.000000 28.724781 0.000000
								CHANNELS 3 Zrotation Yrotation Xrotation
								JOINT LeftHand
								{
									OFFSET 0.644384 25.716167 -0.328871
									CHANNELS 3 Zrotation Yrotation Xrotation
									JOINT LeftHandThumb1
									{
										OFFSET 2.867323 3.959563 2.944291
										CHANNELS 3 Zrotation Yrotation Xrotation
										JOINT LeftHandThumb2
										{
											OFFSET 0.000000 3.350399 -0.000000
											CHANNELS 3 Zrotation Yrotation Xrotation
											JOINT LeftHandThumb3
											{
												OFFSET 0.000000 3.756509 -0.000000
												CHANNELS 3 Zrotation Yrotation Xrotation
												JOINT LeftHandThumb4
												{
													OFFSET 0.000000 3.100000 -0.000000
													CHANNELS 3 Zrotation Yrotation Xrotation
													End Site
													{
														OFFSET 0.000000 0.000000 0.000000
													}
												}
											}
										}
									}
									JOINT LeftHandIndex1
									{
										OFFSET 0.086752 10.030893 2.345280
										CHANNELS 3 Zrotation Yrotation Xrotation
										JOINT LeftHandIndex2
										{
											OFFSET -0.000000 4.061090 -0.000000
											CHANNELS 3 Zrotation Yrotation Xrotation
											JOINT LeftHandIndex3
											{
												OFFSET -0.000000 3.248873 0.000000
												CHANNELS 3 Zrotation Yrotation Xrotation
												JOINT LeftHandIndex4
												{
													OFFSET -0.000000 2.639709 0.000000
													CHANNELS 3 Zrotation Yrotation Xrotation
													End Site
													{
														OFFSET 0.000000 0.000000 0.000000
													}
												}
											}
										}
									}
									JOINT LeftHandMiddle1
									{
										OFFSET -0.104102 9.502952 0.006768
										CHANNELS 3 Zrotation Yrotation Xrotation
										JOINT LeftHandMiddle2
										{
											OFFSET 0.000000 4.568727 -0.000000
											CHANNELS 3 Zrotation Yrotation Xrotation
											JOINT LeftHandMiddle3
											{
												OFFSET 0.000000 3.654981 0.000000
												CHANNELS 3 Zrotation Yrotation Xrotation
												JOINT LeftHandMiddle4
												{
													OFFSET 0.000000 2.741236 0.000000
													CHANNELS 3 Zrotation Yrotation Xrotation
													End Site
													{
														OFFSET 0.000000 0.000000 0.000000
													}
												}
											}
										}
									}
									JOINT LeftHandRing1
									{
										OFFSET -0.086752 8.921708 -2.267442
										CHANNELS 3 Zrotation Yrotation Xrotation
										JOINT LeftHandRing2
										{
											OFFSET -0.000000 4.061090 0.000000
											CHANNELS 3 Zrotation Yrotation Xrotation
											JOINT LeftHandRing3
											{
												OFFSET 0.000000 3.654981 -0.000000
												CHANNELS 3 Zrotation Yrotation Xrotation
												JOINT LeftHandRing4
												{
													OFFSET -0.000000 2.741236 0.000000
													CHANNELS 3 Zrotation Yrotation Xrotation
													End Site
													{
														OFFSET 0.000000 0.000000 0.000000
													}
												}
											}
										}
									}
									JOINT LeftHandPinky1
									{
										OFFSET 0.173504 7.976997 -4.467199
										CHANNELS 3 Zrotation Yrotation Xrotation
										JOINT LeftHandPinky2
										{
											OFFSET 0.000000 3.350399 0.000000
											CHANNELS 3 Zrotation Yrotation Xrotation
											JOINT LeftHandPinky3
											{
												OFFSET -0.000000 2.842763 0.000000
												CHANNELS 3 Zrotation Yrotation Xrotation
												JOINT LeftHandPinky4
												{
													OFFSET -0.000000 2.639709 0.000000
													CHANNELS 3 Zrotation Yrotation Xrotation
													End Site
													{
														OFFSET 0.000000 0.000000 0.000000
													}
												}
											}
										}
									}
									JOINT LeftForeArmEnd
									{
										OFFSET 0.000000 0.000000 0.000000
										CHANNELS 3 Zrotation Yrotation Xrotation
										End Site
										{
											OFFSET 0.000000 0.000000 0.000000
										}
									}
								}
								JOINT LeftArmEnd
								{
									OFFSET 0.000000 0.000000 0.000000
									CHANNELS 3 Zrotation Yrotation Xrotation
									End Site
									{
										OFFSET 0.000000 0.000000 0.000000
									}
								}
							}
						}
					}
				}
			}
		}
	}
	JOINT RightUpLeg
	{
		OFFSET -11.289943 -0.000000 0.000000
		CHANNELS 3 Zrotation Yrotation Xrotation
		JOINT RightLeg
		{
			OFFSET 0.000000 -38.200325 -0.000000
			CHANNELS 3 Zrotation Yrotation Xrotation
			JOINT RightFoot
			{
				OFFSET 0.000000 -39.900856 -0.000000
				CHANNELS 3 Zrotation Yrotation Xrotation
				JOINT RightToeBase
				{
					OFFSET 0.000000 0.000000 15.261641
					CHANNELS 3 Zrotation Yrotation Xrotation
					JOINT RightToeBaseEnd
					{
						OFFSET 0.000000 0.000000 7.370709
						CHANNELS 3 Zrotation Yrotation Xrotation
						End Site
						{
							OFFSET 0.000000 0.000000 0.000000
						}
					}
				}
				JOINT RightLegEnd
				{
					OFFSET 0.000000 0.000000 0.000000
					CHANNELS 3 Zrotation Yrotation Xrotation
					End Site
					{
						OFFSET 0.000000 0.000000 0.000000
					}
				}
			}
			JOINT RightUpLegEnd
			{
				OFFSET 0.000000 0.000000 0.000000
				CHANNELS 3 Zrotation Yrotation Xrotation
				End Site
				{
					OFFSET 0.000000 0.000000 0.000000
				}
			}
		}
	}
	JOINT LeftUpLeg
	{
		OFFSET 11.315661 0.000000 -0.000000
		CHANNELS 3 Zrotation Yrotation Xrotation
		JOINT LeftLeg
		{
			OFFSET -0.000000 -38.200325 0.000000
			CHANNELS 3 Zrotation Yrotation Xrotation
			JOINT LeftFoot
			{
				OFFSET -0.000000 -39.900856 0.000000
				CHANNELS 3 Zrotation Yrotation Xrotation
				JOINT LeftToeBase
				{
					OFFSET 0.000000 -0.000000 15.261641
					CHANNELS 3 Zrotation Yrotation Xrotation
					JOINT LeftToeBaseEnd
					{
						OFFSET 0.000000 0.000000 7.539996
						CHANNELS 3 Zrotation Yrotation Xrotation
						End Site
						{
							OFFSET 0.000000 0.000000 0.000000
						}
					}
				}
				JOINT LeftLegEnd
				{
					OFFSET 0.000000 0.000000 0.000000
					CHANNELS 3 Zrotation Yrotation Xrotation
					End Site
					{
						OFFSET 0.000000 0.000000 0.000000
					}
				}
			}
			JOINT LeftUpLegEnd
			{
				OFFSET 0.000000 0.000000 0.000000
				CHANNELS 3 Zrotation Yrotation Xrotation
				End Site
				{
					OFFSET 0.000000 0.000000 0.000000
				}
			}
		}
	}
}
MOTION
Frames: 4
Frame Time: 0.016667
-2.367664 84.929161 5.921969 -8.581385 -1.830069 -11.949049 3.659144 -0.927064 5.217630 3.685197 -1.273880 1.963381 5.993554 -4.182142 13.560153 -0.777196 -0.462617 0.805712 0.721662 4.431673 11.623075 -4.782038 1.780841 -7.065895 -2.034045 3.039728 -24.472458 0.000000 0.000000 0.000000 96.218544 -0.679415 5.653879 54.183990 -39.727943 5.925569 1.369749 15.677073 39.215183 3.666619 13.764137 -13.199202 10.039282 -1.787270 40.137463 0.000000 0.000000 -24.480000 0.000000 0.000000 -16.999998 0.000000 0.000000 0.000000 13.302605 -0.000000 -8.418694 9.311825 0.000000 0.000000 9.311825 0.000000 0.000000 0.000000 0.000000 0.000000 13.718872 0.000000 -10.504246 9.603210 0.000000 0.000000 9.603210 0.000000 0.000000 0.000000 0.000000 0.000000 14.977846 0.000000 -11.514284 10.484491 0.000000 0.000000 10.484491 0.000000 0.000000 0.000000 0.000000 0.000000 15.428146 0.000000 -14.236147 10.799702 0.000000 0.000000 10.799702 0.000000 0.000000 0.000000 0.000000 0.000000 0.000000 0.000000 0.000000 0.000000 0.000000 0.000000 -94.548340 0.546180 5.958871 -61.953194 38.237366 0.419283 -1.595641 -9.043112 47.113026 6.417896 -22.625128 -16.613049 -9.142712 1.696614 40.542110 0.000000 0.000000 -22.320000 0.000000 0.000000 -15.500000 0.000000 0.000000 0.000000 -13.157762 -0.000000 -11.636312 -9.210433 0.000000 0.000000 -9.210433 0.000000 0.000000 0.000000 0.000000 0.000000 -13.774017 -0.000000 -12.823768 -9.641812 0.000000 0.000000 -9.641812 0.000000 0.000000 0.000000 0.000000 0.000000 -15.362568 -0.000000 -12.003651 -10.753797 0.000000 0.000000 -10.753797 0.000000 0.000000 0.000000 0.000000 0.000000 -15.800038 0.000000 -11.703666 -11.060026 0.000000 0.000000 -11.060026 0.000000 0.000000 0.000000 0.000000 0.000000 0.000000 0.000000 0.000000 0.000000 0.000000 0.000000 14.359435 -8.712116 14.610677 -0.050562 -0.261360 10.924130 -9.697422 -20.525286 15.244452 0.390710 -0.992686 -28.424366 0.000000 0.000000 0.000000 0.000000 0.000000 0.000000 0.000000 0.000000 0.000000 25.265409 17.241943 -5.343299 0.298626 0.469053 31.757898 -8.298603 18.413588 18.101807 0.989832 1.579208 -27.029493 0.000000 0.000000 0.000000 0.000000 0.000000 0.000000 0.000000 0.000000 0.000000 
-2.204559 85.430183 5.829616 -8.798897 -2.795500 -13.327415 5.175747 -1.174639 6.301662 3.114933 -1.029593 3.637357 4.315587 -2.521799 16.254335 0.034066 -0.071206 -0.052512 3.134966 1.616480 10.613402 -4.330201 -0.128854 -6.890123 -0.907105 2.938569 -23.916979 0.000000 0.000000 0.000000 97.444267 -1.210802 5.756361 53.459766 -36.049721 5.585084 1.236617 16.544693 39.031425 5.533189 13.665116 -12.798990 10.062865 -1.775692 40.116962 -0.000008 0.000035 -24.568726 0.000022 0.000035 -17.032127 0.000025 0.000006 -0.000052 13.529468 0.201019 -7.495381 9.246874 0.016708 -0.087849 9.197927 0.022207 -0.040970 -0.000019 0.000037 -0.000040 13.230751 0.078767 -10.003922 8.787048 -0.017654 0.006489 8.814109 0.002882 0.011254 0.000012 0.000061 -0.000027 12.800784 -0.100922 -12.102025 8.277542 0.055946 -0.067023 8.198672 0.013373 -0.045835 -0.000019 -0.000070 -0.000008 12.275418 -0.219912 -16.005810 7.615229 0.124364 -0.298242 7.405900 0.030065 -0.213251 -0.000073 -0.000001 0.000057 0.000000 0.000000 0.000000 0.000000 0.000000 0.000000 -95.776230 1.013959 5.618794 -61.261963 38.697472 2.791713 -1.379325 -11.578866 47.298622 2.893227 -16.386799 -15.069135 -9.534163 1.673095 40.435341 0.000001 0.000031 -23.361563 0.000061 -0.000036 -16.123909 -0.001568 0.000018 -0.000909 -15.009784 0.195527 -14.880149 -11.094942 0.019173 0.321308 -10.967915 0.054498 0.245770 -0.000001 0.000045 -0.000003 -15.006878 0.082762 -15.094864 -11.014729 -0.012218 0.118256 -10.771600 0.012582 0.085099 0.000481 -0.000031 0.000114 -14.786580 -0.076634 -13.076428 -11.040654 0.014210 -0.141082 -10.765040 -0.025160 -0.106705 -0.000002 0.000001 0.000012 -13.954252 -0.198661 -11.763915 -10.026561 -0.003217 -0.316065 -10.025371 -0.070314 -0.223115 -0.000105 0.000009 -0.000037 0.000000 0.000000 0.000000 0.000000 0.000000 0.000000 13.795017 -10.903719 11.781844 -0.009341 -0.153436 10.313432 -12.317806 -17.928154 18.257763 0.536182 -1.315918 -28.154524 0.000000 0.000000 0.000000 0.000000 0.000000 0.000000 0.000000 0.000000 0.000000 25.053488 12.942287 -4.615400 0.521116 1.105795 31.918097 -7.843335 16.095352 16.801407 1.377950 1.586837 -28.230536 0.000000 0.000000 0.000000 0.000000 0.000000 0.000000 0.000000 0.000000 0.000000 
-2.184992 85.386635 5.825489 -8.711246 -2.996681 -13.292675 5.130717 -1.154576 6.248692 3.155318 -1.054241 3.699472 4.248299 -2.621397 16.105379 -0.008056 -0.102846 -0.015342 3.031736 1.838395 10.645180 -4.313883 0.089769 -6.842885 -0.990370 2.942363 -23.921091 0.000000 0.000000 0.000000 97.434578 -1.205243 5.611134 53.191025 -36.102291 5.586024 1.252678 16.662798 39.206989 5.948972 13.351599 -12.671689 9.949323 -1.768372 40.165535 -0.000001 0.000028 -24.303980 0.000029 0.000038 -16.842430 0.000025 0.000008 -0.000057 13.182318 0.203306 -7.196781 9.004521 0.010509 -0.059601 8.958753 0.016616 -0.017194 -0.000016 0.000047 -0.000041 12.799850 0.080175 -9.712374 8.556571 -0.019414 0.018535 8.579951 0.000567 0.020056 0.000011 0.000029 -0.000035 12.307929 -0.102927 -11.865472 8.006757 0.060450 -0.086077 7.929585 0.017839 -0.060471 -0.000020 -0.000029 -0.000004 11.884773 -0.214469 -15.825011 7.373335 0.137793 -0.356668 7.171525 0.044003 -0.260969 -0.000026 -0.000003 0.000051 0.000000 0.000000 0.000000 0.000000 0.000000 0.000000 -95.748810 0.960065 5.469648 -61.469234 38.571972 2.309858 -1.352607 -11.595438 47.866661 2.255799 -16.240688 -15.099264 -9.567465 1.684480 40.407715 0.000009 0.000034 -23.463640 0.000044 -0.000038 -16.180374 -0.001506 0.000018 -0.001118 -15.191911 0.194664 -14.846416 -11.128707 0.020096 0.311166 -10.991646 0.054836 0.235214 0.000014 -0.000270 -0.000015 -15.201428 0.084048 -15.081168 -11.067519 -0.011254 0.112822 -10.834286 0.013044 0.082337 0.000347 -0.000033 0.000081 -14.961322 -0.072893 -13.156260 -11.096542 0.013898 -0.132890 -10.827811 -0.023798 -0.099846 0.000195 -0.000001 0.000006 -13.978247 -0.180170 -11.955771 -10.029136 0.001381 -0.278063 -10.053538 -0.066690 -0.202338 -0.000189 0.000015 -0.000053 0.000000 0.000000 0.000000 0.000000 0.000000 0.000000 13.733623 -10.655622 11.649224 -0.012532 -0.153878 10.371470 -12.387800 -17.605455 18.187382 0.547196 -1.318329 -28.223763 0.000000 0.000000 0.000000 0.000000 0.000000 0.000000 0.000000 0.000000 0.000000 25.033138 13.083329 -4.377913 0.522017 1.100689 31.805183 -7.957851 16.151459 16.683676 1.360318 1.590628 -28.255253 0.000000 0.000000 0.000000 0.000000 0.000000 0.000000 0.000000 0.000000 0.000000 
-2.164972 85.366364 5.816895 -8.701051 -3.134782 -13.249950 5.131020 -1.147953 6.198194 3.195139 -1.066396 3.794672 4.254027 -2.720700 15.944782 -0.041113 -0.133437 0.013057 2.937568 2.045250 10.625231 -4.298197 0.253215 -6.872938 -1.057557 2.943035 -23.936958 0.000000 0.000000 0.000000 97.355766 -1.184716 5.405803 53.232967 -36.196373 5.390752 1.273388 16.815315 39.519352 5.745473 12.892752 -12.584041 9.777802 -1.748021 40.251545 -0.000002 0.000027 -23.870981 0.000028 0.000038 -16.539240 0.000024 0.000008 -0.000057 12.445310 0.203695 -6.737961 8.661858 0.004184 -0.025275 8.612384 0.010632 0.012886 -0.000017 0.000046 -0.000042 11.994781 0.079802 -9.349230 8.220188 -0.021705 0.033113 8.243479 -0.002056 0.031159 0.000010 0.000019 -0.000034 11.469354 -0.103088 -11.666284 7.640569 0.064806 -0.106570 7.561660 0.021900 -0.076256 -0.000018 -0.000047 -0.000003 11.139851 -0.208357 -15.769805 7.044845 0.149401 -0.415980 6.851715 0.055070 -0.310297 -0.000022 -0.000004 0.000043 0.000000 0.000000 0.000000 0.000000 0.000000 0.000000 -95.647018 0.948516 5.324612 -61.533695 38.323597 2.141008 -1.345612 -11.840661 48.553181 1.450896 -16.020029 -15.275062 -9.563045 1.687450 40.400238 0.000008 0.000035 -23.484764 0.000035 -0.000037 -16.179977 -0.001505 0.000018 -0.001138 -15.200039 0.189171 -14.823105 -11.092280 0.022777 0.314038 -10.948771 0.057218 0.235421 0.000015 -0.000510 -0.000015 -15.227165 0.082691 -15.097486 -11.040257 -0.009967 0.112222 -10.812058 0.013825 0.083262 0.000048 -0.000036 0.000075 -14.972880 -0.067993 -13.285101 -11.082068 0.012470 -0.132373 -10.816514 -0.023405 -0.097942 0.000420 -0.000000 0.000005 -13.911826 -0.165865 -12.193483 -10.002373 0.000721 -0.269571 -10.045274 -0.066739 -0.196099 -0.000249 0.000014 -0.000053 0.000000 0.000000 0.000000 0.000000 0.000000 0.000000 13.751283 -10.477612 11.613605 -0.013924 -0.150344 10.393775 -12.425643 -17.486294 18.161873 0.551941 -1.323814 -28.309523 0.000000 0.000000 0.000000 0.000000 0.000000 0.000000 0.000000 0.000000 0.000000 25.086163 13.158524 -4.251155 0.523589 1.096519 31.738495 -8.034849 16.187382 16.616808 1.347482 1.598331 -28.298323 0.000000 0.000000 0.000000 0.000000 0.000000 0.000000 0.000000 0.000000 0.000000 
